<svg xmlns="http://www.w3.org/2000/svg" xmlns:xlink="http://www.w3.org/1999/xlink" width="98" height="65" version="1.1" viewBox="0 0 98 65"><desc>Created with Sketch.</desc><defs><rect id="path-1" width="139" height="23" x="0" y="0"/><linearGradient id="linearGradient-3" x1="-21.327%" x2="77.2%" y1="-6.733%" y2="-99.356%"><stop offset="0%" stop-color="#FFF"/><stop offset="12.01%" stop-color="#C6C6C6"/><stop offset="24.46%" stop-color="#929292"/><stop offset="37.13%" stop-color="#656565"/><stop offset="49.78%" stop-color="#414141"/><stop offset="62.4%" stop-color="#242424"/><stop offset="74.98%" stop-color="#101010"/><stop offset="87.52%" stop-color="#040404"/><stop offset="100%" stop-color="#FFF"/></linearGradient></defs><g id="Page-1" fill="none" fill-rule="evenodd" stroke="none" stroke-width="1"><g id="404-Mars-Illustration" transform="translate(-702.000000, -156.000000)"><g id="Star" transform="translate(761.938766, 184.709292) rotate(-30.000000) translate(-761.938766, -184.709292) translate(692.438766, 173.209292)"><mask id="mask-2" fill="#fff"><use xlink:href="#path-1"/></mask><polygon id="path75_fill" fill="url(#linearGradient-3)" fill-rule="nonzero" points="68.589 14.512 123.749 -7.652 46.082 26.227 111.861 .739 32.926 34.459 100.924 8.338 13.43 45.066 9.309 35.884 93.633 -7.019 29.756 27.177 104.887 -10.343 48.776 18.944 120.103 -15.409 70.967 9.604 141.184 -20" mask="url(#mask-2)" opacity=".15" transform="translate(75.246443, 12.532852) rotate(25.000000) translate(-75.246443, -12.532852)"/><path id="path77_fill" fill="#CFD8DC" fill-rule="nonzero" d="M6.70218631,16.1477704 C9.50290021,16.1477704 11.773372,13.8791082 11.773372,11.080594 C11.773372,8.28207967 9.50290021,6.01344239 6.70218631,6.01344239 C3.90147242,6.01344239 1.63103095,8.28207967 1.63103095,11.080594 C1.63103095,13.8791082 3.90147242,16.1477704 6.70218631,16.1477704 Z" mask="url(#mask-2)"/></g></g></g></svg>