<?xml version="1.0" standalone="no"?>
<!DOCTYPE svg PUBLIC "-//W3C//DTD SVG 20010904//EN"
 "http://www.w3.org/TR/2001/REC-SVG-20010904/DTD/svg10.dtd">
<svg version="1.0" xmlns="http://www.w3.org/2000/svg"
 width="1024.000000pt" height="1024.000000pt" viewBox="0 0 1024.000000 1024.000000"
 preserveAspectRatio="xMidYMid meet">
<metadata>
Created by potrace 1.11, written by Peter Selinger 2001-2013
</metadata>
<g transform="translate(0.000000,1024.000000) scale(0.100000,-0.100000)"
fill="#000000" stroke="none">
<path d="M4815 6380 c-242 -37 -417 -91 -630 -194 -567 -274 -971 -769 -1135
-1388 l-28 -108 357 0 357 0 18 53 c10 28 45 106 77 172 267 545 831 880 1402
835 145 -12 213 -26 351 -71 178 -58 341 -150 491 -276 39 -32 70 -64 70 -70
0 -5 -133 -149 -295 -318 -162 -169 -296 -311 -298 -316 -2 -5 368 -9 852 -9
l856 0 0 856 c0 488 -4 854 -9 852 -5 -1 -147 -135 -315 -296 l-307 -293 -76
67 c-325 284 -707 454 -1141 508 -169 22 -442 20 -597 -4z"/>
<path d="M8921 5473 c-11 -46 -11 -57 0 -64 8 -5 17 -9 22 -9 10 0 9 118 -1
124 -5 3 -15 -20 -21 -51z"/>
<path d="M2981 2983 l0 -858 317 322 317 322 65 -60 c414 -385 975 -599 1510
-575 470 21 867 169 1245 463 99 77 275 252 356 353 182 227 323 508 402 798
l25 92 -358 0 -357 0 -23 -62 c-135 -375 -438 -691 -812 -846 -311 -130 -691
-145 -1003 -41 -190 64 -394 183 -533 311 l-46 42 305 297 304 298 -857 1
-858 0 1 -857z"/>
<path d="M6 3280 c-12 -179 15 -436 69 -651 79 -314 243 -640 452 -899 89
-111 246 -268 353 -353 317 -252 657 -407 1075 -489 l110 -22 3085 -4 c2207
-2 3113 0 3185 8 304 34 604 136 859 292 516 316 881 830 1000 1408 33 161 49
364 40 504 l-8 111 -12 -85 c-49 -333 -195 -675 -413 -965 -89 -120 -282 -315
-404 -409 -324 -250 -713 -402 -1122 -436 -92 -8 -1017 -10 -3140 -8 -3362 4
-3062 -3 -3361 73 -915 233 -1613 1007 -1748 1940 l-13 90 -7 -105z"/>
</g>
</svg>
